<svg width="39" height="33" viewBox="0 0 39 33" fill="none" xmlns="http://www.w3.org/2000/svg">
<path d="M19.4393 32.9622C16.8834 32.9622 14.3297 32.9622 11.7739 32.9622C10.8188 32.9622 10.4197 32.5628 10.4197 31.6079C10.4197 27.9445 10.4113 24.2811 10.4218 20.6177C10.4301 17.8926 12.1563 15.727 14.8104 15.1029C15.2241 15.0051 15.6609 14.9718 16.0872 14.9698C18.338 14.9573 20.5908 14.951 22.8415 14.9677C25.575 14.9864 27.7609 16.7214 28.3669 19.355C28.4673 19.7919 28.4965 20.2516 28.4965 20.701C28.507 24.3519 28.5028 28.0028 28.5007 31.6537C28.5007 32.5524 28.0869 32.9622 27.1778 32.9622C24.599 32.9622 22.0202 32.9601 19.4393 32.9622Z" fill="#E2E8F0"/>
<path d="M19.4853 0.156029C23.1801 0.172671 26.227 3.18077 26.2061 6.83167C26.1831 10.6594 23.1529 13.5864 19.4372 13.5739C15.686 13.5614 12.6976 10.52 12.7122 6.82127C12.7248 3.14956 15.7821 0.139386 19.4853 0.156029Z" fill="#E2E8F0"/>
<path d="M8.62039 17.8593C8.58695 17.9987 8.55561 18.0923 8.54098 18.188C8.4135 19.0305 8.18989 19.873 8.18153 20.7176C8.14183 24.356 8.16063 27.9944 8.17108 31.6349C8.17317 32.0593 8.25467 32.4816 8.30274 32.9351C8.23587 32.9414 8.14182 32.9601 8.04778 32.9601C6.53058 32.9622 5.01129 32.9705 3.49409 32.958C1.83896 32.9455 0.601797 32.0219 0.160847 30.4554C0.066806 30.1226 0.0375487 29.7606 0.0354588 29.4111C0.02292 27.4848 0.0270996 25.5584 0.0312792 23.6321C0.0312792 20.3723 2.35306 17.9737 5.63406 17.8655C6.61418 17.8322 7.59847 17.8593 8.62039 17.8593Z" fill="#E2E8F0"/>
<path d="M30.6846 32.9518C30.8434 28.7849 30.7431 24.6369 30.7389 20.4888C30.7389 19.7211 30.5069 18.9535 30.3816 18.1859C30.3669 18.0902 30.3377 17.9987 30.3 17.8447C32.1683 17.9487 34.045 17.5472 35.7774 18.4542C37.7126 19.4694 38.8035 21.0775 38.8766 23.2555C38.9477 25.3691 38.9184 27.4868 38.8892 29.6004C38.862 31.4893 37.4639 32.9018 35.5831 32.9455C33.9656 32.983 32.3439 32.9538 30.7243 32.9538C30.6867 32.958 30.6511 32.9434 30.6846 32.9518Z" fill="#E2E8F0"/>
<path d="M2.56623 11.4416C2.5516 8.6873 4.81905 6.42602 7.60267 6.4177C10.3738 6.40938 12.6245 8.62073 12.6537 11.3833C12.683 14.1501 10.4051 16.4488 7.62357 16.4572C4.85248 16.4655 2.58086 14.2125 2.56623 11.4416Z" fill="#E2E8F0"/>
<path d="M36.3584 11.4312C36.3584 14.1917 34.0909 16.4509 31.3136 16.4572C28.5446 16.4634 26.2521 14.1626 26.2709 11.3937C26.2897 8.63736 28.5362 6.41769 31.3094 6.41769C34.0951 6.41769 36.3584 8.66649 36.3584 11.4312Z" fill="#E2E8F0"/>
</svg>
