<svg width="39" height="37" viewBox="0 0 39 37" fill="none" xmlns="http://www.w3.org/2000/svg">
<path d="M38.9974 14.3715C39.0079 14.7199 38.8329 14.9591 38.5966 15.1647C38.101 15.597 37.6032 16.0272 37.1054 16.4574C35.9938 17.4164 34.8822 18.3732 33.7707 19.3322C32.2457 20.6458 30.7228 21.9595 29.1957 23.2689C29.0649 23.3822 29.0291 23.4766 29.0733 23.655C29.2737 24.4566 29.4488 25.2624 29.6365 26.0661C29.82 26.8572 30.0099 27.6483 30.1955 28.4394C30.3937 29.2851 30.5857 30.1329 30.784 30.9806C30.997 31.8956 31.2163 32.8084 31.4315 33.7212C31.5918 34.3948 31.7584 35.0684 31.904 35.7462C31.9968 36.1785 31.8765 36.5541 31.5011 36.8122C31.1299 37.0661 30.746 37.0556 30.3579 36.8227C27.7445 35.2531 25.129 33.6855 22.5157 32.118C21.5728 31.5514 20.6279 30.9848 19.6893 30.4141C19.5627 30.3364 19.4657 30.3259 19.3286 30.4078C17.194 31.6941 15.0574 32.9721 12.9207 34.2542C11.5054 35.1041 10.0858 35.9455 8.67897 36.808C8.00823 37.2193 7.2953 36.8772 7.135 36.3212C7.07383 36.1134 7.08016 35.8679 7.12656 35.6539C7.32905 34.7054 7.55685 33.7611 7.77832 32.8168C7.99557 31.8914 8.22126 30.9659 8.43852 30.0405C8.60304 29.3418 8.7549 28.6388 8.91943 27.94C9.10715 27.1363 9.3012 26.3347 9.49103 25.531C9.64923 24.8616 9.80953 24.1943 9.95718 23.5228C9.96984 23.4619 9.90445 23.3591 9.8475 23.3109C9.13668 22.6918 8.42164 22.0791 7.70872 21.4621C5.87366 19.8799 4.04072 18.2956 2.20567 16.7134C1.60664 16.1972 1.00762 15.6809 0.408588 15.1647C0.144931 14.9402 -0.0174816 14.6758 0.00150165 14.3128C0.0225942 13.9078 0.336873 13.4797 0.73974 13.4125C1.15737 13.3433 1.58133 13.3097 2.00529 13.2719C3.05992 13.1796 4.11666 13.0936 5.17128 13.0054C6.57394 12.8879 7.97659 12.7725 9.37924 12.6529C10.3896 12.5669 11.3999 12.4703 12.4102 12.3801C12.7456 12.3507 13.0789 12.313 13.4142 12.2983C13.564 12.292 13.6399 12.2332 13.6948 12.101C14.0555 11.2344 14.4204 10.3698 14.7874 9.50525C15.3527 8.17694 15.92 6.85073 16.4832 5.52452C17.1582 3.936 17.8331 2.34748 18.5039 0.756871C18.6832 0.330888 18.951 0.0224181 19.4467 0.00143372C19.9023 -0.0195506 20.2314 0.190293 20.4128 0.599488C20.7502 1.36542 21.0729 2.13974 21.402 2.90987C22.0791 4.49838 22.754 6.0869 23.429 7.67541C23.9985 9.01421 24.5638 10.3551 25.1333 11.696C25.1501 11.7359 25.1776 11.7758 25.186 11.8177C25.2598 12.2164 25.5256 12.3192 25.8989 12.3423C26.943 12.4074 27.985 12.5018 29.0269 12.5899C30.0499 12.676 31.0729 12.7683 32.098 12.8565C33.4501 12.9719 34.8021 13.0831 36.1541 13.2006C36.8354 13.2593 37.5167 13.3307 38.198 13.3978C38.6093 13.4356 39.0375 13.9329 38.9974 14.3715Z" fill="#E2E8F0"/>
</svg>
