<svg width="39" height="37" viewBox="0 0 39 37" fill="none" xmlns="http://www.w3.org/2000/svg">
<path d="M10.6753 12.8093C16.5752 12.8093 22.4082 12.8093 28.2914 12.8093C28.2327 13.0089 28.1866 13.1828 28.128 13.3492C25.5037 20.831 22.8773 28.3129 20.2509 35.7948C20.2279 35.8588 20.2028 35.9202 20.1818 35.9842C20.0582 36.3731 19.8467 36.6392 19.4865 36.6366C19.1262 36.6341 18.9294 36.3603 18.7953 35.9765C18.0644 33.8808 17.325 31.7878 16.5899 29.6947C14.6882 24.2752 12.7865 18.8557 10.8847 13.4362C10.8156 13.2494 10.757 13.0549 10.6753 12.8093Z" fill="#E2E8F0"/>
<path d="M28.3185 11.0744C22.4206 11.0744 16.5563 11.0744 10.6479 11.0744C10.6919 10.8723 10.7192 10.706 10.7631 10.5473C11.5632 7.61239 12.3633 4.67491 13.1633 1.73999C13.3581 1.02864 13.5278 0.872559 14.1184 0.872559C17.6977 0.872559 21.2771 0.872559 24.8564 0.872559C25.424 0.872559 25.6104 1.02097 25.7801 1.64275C26.6053 4.65956 27.4263 7.67636 28.2473 10.6957C28.2787 10.8058 28.2913 10.9235 28.3185 11.0744Z" fill="#E2E8F0"/>
<path d="M16.0035 32.5989C10.8177 26.0331 5.63196 19.4672 0.389648 12.8323C0.586523 12.8169 0.705904 12.799 0.825286 12.799C3.46424 12.7965 6.1032 12.799 8.74425 12.7939C8.98301 12.7939 9.15894 12.799 9.27832 13.1419C11.5172 19.5593 13.7687 25.9691 16.016 32.3814C16.0328 32.4275 16.0412 32.4761 16.0516 32.5247C16.037 32.5503 16.0202 32.5759 16.0035 32.5989Z" fill="#E2E8F0"/>
<path d="M22.9087 32.5349C23.3904 31.166 23.8721 29.7945 24.3517 28.4255C26.1236 23.3719 27.8976 18.3183 29.6674 13.2647C29.7574 13.0063 29.8161 12.7863 30.1302 12.7888C32.855 12.8067 35.582 12.799 38.3068 12.8016C38.3717 12.8016 38.4387 12.8144 38.5937 12.8298C33.3535 19.4621 28.1698 26.028 22.9862 32.5912C22.9611 32.5708 22.9338 32.5529 22.9087 32.5349Z" fill="#E2E8F0"/>
<path d="M38.5958 11.1051C38.1936 11.1051 37.825 11.1051 37.4564 11.1051C35.0457 11.1051 32.6351 11.1026 30.2244 11.1102C29.9731 11.1102 29.816 11.0719 29.7218 10.7213C28.8693 7.54842 27.996 4.38577 27.1331 1.21799C27.1058 1.12076 27.1017 1.01585 27.0786 0.877674C28.752 0.877674 30.4045 0.86488 32.057 0.895585C32.2518 0.898144 32.5031 1.08494 32.6246 1.28196C34.6122 4.48812 36.5851 7.70962 38.5581 10.9286C38.5748 10.9516 38.5727 10.99 38.5958 11.1051Z" fill="#E2E8F0"/>
<path d="M11.9088 0.869998C11.8523 1.1182 11.8188 1.29987 11.7706 1.47643C10.9433 4.5137 10.1097 7.54586 9.29501 10.5883C9.19029 10.9823 9.04997 11.1205 8.69811 11.1179C6.05915 11.0975 3.42019 11.1051 0.781237 11.1051C0.657667 11.1051 0.534097 11.1051 0.343506 11.1051C0.444038 10.9081 0.502681 10.7776 0.575985 10.6573C2.45048 7.60471 4.32917 4.55976 6.19319 1.49946C6.46546 1.05167 6.77125 0.854645 7.23621 0.86488C8.54731 0.895586 9.8605 0.869998 11.1737 0.867439C11.3999 0.869998 11.6261 0.869998 11.9088 0.869998Z" fill="#E2E8F0"/>
</svg>
