<svg width="31" height="37" viewBox="0 0 31 37" fill="none" xmlns="http://www.w3.org/2000/svg">
<path d="M15.5119 26.7777C9.48211 26.7265 4.67335 20.7978 4.71524 13.4643C4.75713 6.19993 9.64548 0.289143 15.5706 0.342878C21.5857 0.396612 26.4028 6.36113 26.3484 13.6844C26.2981 20.9462 21.4286 26.8288 15.5119 26.7777ZM15.535 10.6701C15.4051 10.5217 15.292 10.3887 15.1747 10.2582C14.0814 9.0325 12.4352 9.05553 11.3796 10.317C10.3283 11.5708 10.2445 13.623 11.2624 14.9407C12.4101 16.4274 13.6123 17.8526 14.8061 19.2881C15.2166 19.782 15.8303 19.805 16.2387 19.3137C17.466 17.8424 18.7101 16.3864 19.8725 14.8409C20.8506 13.5411 20.7102 11.5043 19.6651 10.2863C18.62 9.06833 16.9927 9.04274 15.9203 10.2326C15.7926 10.3733 15.6711 10.514 15.535 10.6701Z" fill="#E2E8F0"/>
<path d="M5.87137 30.3958C3.98012 30.3958 2.09096 30.3958 0.0928955 30.3958C1.73491 27.6553 3.3141 25.0198 4.92679 22.3305C6.84737 25.6518 9.40045 27.8063 12.6698 28.7965C11.0048 31.5728 9.35856 34.3184 7.66837 37.1382C7.0589 34.8532 6.47247 32.6526 5.87137 30.3958Z" fill="#E2E8F0"/>
<path d="M30.9729 30.3855C28.9874 30.3855 27.1003 30.3855 25.2007 30.3855C24.5996 32.6424 24.0131 34.8455 23.4016 37.1382C21.7197 34.3337 20.0777 31.5959 18.4043 28.8042C21.6423 27.8191 24.2058 25.6825 26.141 22.3279C27.7391 24.9916 29.3204 27.6297 30.9729 30.3855Z" fill="#E2E8F0"/>
</svg>
