<svg width="39" height="37" viewBox="0 0 39 37" fill="none" xmlns="http://www.w3.org/2000/svg">
<path d="M16.6504 19.1745C16.6504 16.9962 16.6447 14.8203 16.6533 12.642C16.6562 11.6167 17.6562 10.9127 18.8109 11.0993C19.5702 11.2222 20.0745 11.7159 20.0745 12.3538C20.0774 15.3401 20.0745 18.3264 20.0745 21.3126C20.0745 21.9127 20.298 22.1891 20.7822 22.1962C21.2865 22.2033 21.5186 21.9245 21.5186 21.3008C21.5186 20.9086 21.5072 20.5164 21.5215 20.1219C21.5501 19.3115 22.2264 18.7398 23.1347 18.7422C24.0458 18.7445 24.7135 19.3186 24.7221 20.1361C24.7335 21.2063 24.7249 22.2766 24.7249 23.3492C24.7249 23.4673 24.7192 23.5878 24.7364 23.7059C24.7908 24.0626 25.0888 24.2776 25.49 24.2635C25.8911 24.2493 26.1662 24.0178 26.1748 23.6539C26.1862 22.9995 26.1776 22.3451 26.1805 21.6906C26.1834 20.7598 26.7966 20.1573 27.765 20.1361C28.7937 20.1148 29.7049 20.7952 29.7249 21.6599C29.7564 22.8483 29.7364 24.039 29.7392 25.2297C29.7392 25.3479 29.7306 25.4684 29.7536 25.5865C29.8166 25.9362 30.1289 26.1488 30.5272 26.1252C30.9054 26.1039 31.1834 25.8747 31.192 25.5322C31.2063 24.8659 31.1977 24.1997 31.1977 23.5334C31.2006 22.6546 31.7822 22.0616 32.6877 22.0214C33.7077 21.9741 34.5014 22.5506 34.616 23.4177C34.6275 23.5004 34.6304 23.583 34.6304 23.6681C34.6304 26.0708 34.6504 28.4759 34.6246 30.8786C34.596 33.7255 32.4097 36.0762 29.1547 36.759C28.5616 36.8842 27.9312 36.9409 27.3152 36.948C24.9627 36.9693 22.6103 36.9598 20.2579 36.9551C18.7335 36.9528 17.5902 36.3952 16.8997 35.2777C14.8625 31.9725 12.8424 28.6625 10.8223 25.3502C10.404 24.6651 10.596 23.928 11.2779 23.4885C11.8997 23.0845 12.7822 23.0869 13.3954 23.5169C13.5988 23.6586 13.765 23.8524 13.8968 24.0437C14.341 24.684 14.7593 25.3337 15.192 25.9787C15.4527 26.3685 15.7364 26.4961 16.1203 26.3992C16.5559 26.2905 16.6533 26.0141 16.6504 25.6739C16.6476 23.5051 16.6504 21.341 16.6504 19.1745Z" fill="#E2E8F0"/>
<path d="M10.4785 5.5024C11.9026 6.7073 13.3238 7.90512 14.7421 9.1053C16.9685 7.62397 19.2235 7.56727 21.5559 8.93992C23.5358 7.61452 25.5301 6.28204 27.5444 4.93538C27.2407 4.32348 27.0602 3.70449 27.192 3.03353C27.4957 1.47188 29.1318 0.347299 31.0631 0.401637C32.9427 0.455976 34.4814 1.70341 34.6419 3.30522C34.7909 4.80781 33.4871 6.23243 31.6791 6.54665C30.6361 6.7262 29.6705 6.56791 28.7937 6.0765C28.6161 5.97727 28.4986 5.94419 28.3095 6.07177C26.4012 7.35937 24.4814 8.63751 22.533 9.94164C23.0688 10.7355 23.3295 11.586 23.2149 12.5263C24.3553 12.72 25.4642 12.9114 26.576 13.098C28.1719 13.3673 29.7679 13.6249 31.3582 13.9155C31.7078 13.9793 31.8482 13.932 31.9914 13.6509C32.6476 12.3656 34.3381 11.7159 35.9513 12.0963C37.5215 12.4672 38.5817 13.7808 38.3553 15.0708C38.1032 16.5095 36.7164 17.5302 35.0229 17.5254C33.5931 17.5231 32.3209 16.7553 31.8739 15.5976C31.7823 15.3613 31.6533 15.2645 31.3553 15.2149C28.6419 14.7636 25.9341 14.2982 23.2264 13.828C22.9341 13.7784 22.7794 13.8257 22.6189 14.0596C22.3639 14.4329 22.0201 14.7636 21.7106 15.1109C21.6676 15.0944 21.6247 15.0778 21.5817 15.0637C21.5817 14.4518 21.5817 13.8375 21.5817 13.2256C21.5817 12.9752 21.5817 12.7271 21.5817 12.4767C21.5817 11.1654 20.7164 10.2039 19.255 9.89912C17.8224 9.59671 16.2636 10.1354 15.596 11.2458C15.3439 11.6663 15.2207 12.1695 15.1863 12.6444C15.1232 13.4949 15.1691 14.3502 15.1691 15.2031C15.1318 15.222 15.0917 15.2432 15.0545 15.2621C14.6791 14.9054 14.3066 14.5486 13.9083 14.1706C13.8195 14.2061 13.7049 14.2462 13.5931 14.2935C11.8109 15.0755 10.0373 15.8669 8.24644 16.6324C7.93126 16.7671 7.86249 16.8994 7.91406 17.1805C8.21779 18.8107 6.87395 20.3794 4.94845 20.67C2.92839 20.9748 1.00289 19.9376 0.561627 18.3098C0.189134 16.9372 0.971369 15.5338 2.47567 14.8699C3.95131 14.2202 5.73355 14.4612 6.92552 15.4724C6.99429 15.5314 7.04873 15.6023 7.12037 15.6803C8.53297 15.0589 9.90547 14.4588 11.2751 13.8564C11.8854 13.5894 12.49 13.3106 13.1089 13.0555C13.3295 12.9657 13.3926 12.8594 13.3525 12.6657C13.1834 11.8813 13.3553 11.1324 13.7078 10.3976C13.7593 10.2913 13.7221 10.0905 13.6275 10.0102C12.2292 8.80761 10.8195 7.61452 9.39544 6.43324C9.29802 6.35292 9.06019 6.31512 8.91979 6.34819C7.06306 6.77581 5.192 5.93002 4.70776 4.43216C4.21779 2.9154 5.30088 1.39864 7.14615 1.01118C8.44128 0.739483 9.8281 1.16238 10.6247 2.07196C11.4327 2.99336 11.4871 4.19354 10.7593 5.15983C10.6676 5.2685 10.5788 5.37482 10.4785 5.5024Z" fill="#E2E8F0"/>
</svg>
