<?xml version="1.0" encoding="utf-8"?>
<!-- Generator: Adobe Illustrator 28.1.0, SVG Export Plug-In . SVG Version: 6.00 Build 0)  -->
<svg version="1.1" id="Capa_1" xmlns="http://www.w3.org/2000/svg" xmlns:xlink="http://www.w3.org/1999/xlink" x="0px" y="0px"
	 viewBox="0 0 66 64" style="enable-background:new 0 0 66 64;" xml:space="preserve">
<style type="text/css">
	.st0{fill:#E2E8F0;}
</style>
<path class="st0" d="M58.01,15.64H7.4c-1.32,0-2.4-1.08-2.4-2.4V12.4C5,11.08,6.08,10,7.4,10h50.61c1.32,0,2.4,1.08,2.4,2.4v0.84
	C60.41,14.56,59.33,15.64,58.01,15.64z"/>
<path class="st0" d="M58.1,32.32H7.49c-1.32,0-2.4-1.08-2.4-2.4v-0.84c0-1.32,1.08-2.4,2.4-2.4H58.1c1.32,0,2.4,1.08,2.4,2.4v0.84
	C60.5,31.24,59.42,32.32,58.1,32.32z"/>
<path class="st0" d="M58.1,48.74H7.49c-1.32,0-2.4-1.08-2.4-2.4V45.5c0-1.32,1.08-2.4,2.4-2.4H58.1c1.32,0,2.4,1.08,2.4,2.4v0.84
	C60.5,47.66,59.42,48.74,58.1,48.74z"/>
</svg>
