<?xml version="1.0" encoding="utf-8"?>
<!-- Generator: Adobe Illustrator 28.1.0, SVG Export Plug-In . SVG Version: 6.00 Build 0)  -->
<svg version="1.1" id="Capa_1" xmlns="http://www.w3.org/2000/svg" xmlns:xlink="http://www.w3.org/1999/xlink" x="0px" y="0px"
	 viewBox="0 0 4.87 4.87" style="enable-background:new 0 0 4.87 4.87;" xml:space="preserve">
<style type="text/css">
	.st0{fill:#E2E8F0;}
</style>
<path class="st0" d="M4.26,1.32H0.23C0.1,1.32,0,1.21,0,1.09v0c0-0.13,0.1-0.23,0.23-0.23h4.04c0.13,0,0.23,0.1,0.23,0.23v0
	C4.49,1.21,4.39,1.32,4.26,1.32z"/>
<path class="st0" d="M4.27,2.67H0.24c-0.13,0-0.23-0.1-0.23-0.23v0c0-0.13,0.1-0.23,0.23-0.23h4.04c0.13,0,0.23,0.1,0.23,0.23v0
	C4.5,2.57,4.4,2.67,4.27,2.67z"/>
<path class="st0" d="M4.27,4H0.24C0.11,4,0.01,3.9,0.01,3.77v0c0-0.13,0.1-0.23,0.23-0.23h4.04c0.13,0,0.23,0.1,0.23,0.23v0
	C4.5,3.9,4.4,4,4.27,4z"/>
</svg>
